<svg width="33" height="33" viewBox="0 0 33 33" fill="none" xmlns="http://www.w3.org/2000/svg"><circle cx="16.0099" cy="16.0098" r="15" transform="rotate(4 16.0099 16.0098)" fill="#C2E3FE"/><path d="M17.0599 11.7495C17.7085 11.2234 18.4318 10.7953 19.2064 10.479C20.4077 10.0028 21.9693 9.85768 22.3448 10.479C22.7202 11.1003 22.2208 12.4881 21.8079 13.4718C21.4663 14.2847 20.61 15.2753 20.61 15.2753C20.61 15.2753 21.8079 15.849 22.5097 16.4227C23.2115 16.9964 24.228 18.3552 23.9543 19.333C23.7484 20.0705 21.478 20.7266 20.5282 20.6848C19.5783 20.643 18.0928 20.2342 18.0928 20.2342C17.8441 20.8846 17.4957 21.4929 17.0599 22.0378C16.5651 22.6184 15.1193 23.1039 14.5836 22.9808C14.0478 22.8577 13.7156 22.1609 13.4688 21.1772C13.222 20.1936 13.3448 19.0462 13.3448 19.0462C12.6434 19.1378 11.9313 19.11 11.2393 18.9637C10.2064 18.7175 9.11626 18.5561 9.00981 17.8163C8.88582 16.9558 9.95963 15.6028 10.9504 15.1104C11.6604 14.762 12.8898 14.4136 12.8898 14.4136C12.5202 13.6056 12.2167 12.7695 11.9821 11.9132C11.6522 10.6427 11.5282 8.38859 12.2301 8.0611C12.9319 7.7336 14.6655 8.79854 15.3673 9.4547C16.0691 10.1108 17.0599 11.7495 17.0599 11.7495Z" fill="#54537C"/></svg>